# xmcd
#
# Track frame offsets:
#  150
#  22966
#  45298
#  68911
#  101143
#  118908
#  145419
#  172133
#
# Disc length: 2703 seconds
#
# Revision: 0
# Processed by: cddbd v1.5.1PL2 Copyright (c) Steve Scherf et al.
# Submitted via: Collectorz.com_Music_Collector 6.9
#
DISCID=700a8d08
DTITLE=Alice Stuart - Live At The Triple Door CD 1
DYEAR=2005
DGENRE=Acoustic blues
TTITLE0=I've Got Something For You
TTITLE1=Big Boss Man
TTITLE2=The Man's So Good
TTITLE3=I Feel Like Hank Williams
TTITLE4=Sugar Babe
TTITLE5=Statesboro Blues
TTITLE6=I'd Do It For You
TTITLE7=Make It On My Own
EXTD=
EXTT0=
EXTT1=
EXTT2=
EXTT3=
EXTT4=
EXTT5=
EXTT6=
EXTT7=
PLAYORDER=
